<?xml version="1.0" encoding="utf-8"?>
<!DOCTYPE svg PUBLIC "-//W3C//DTD SVG 1.0//EN" "http://www.w3.org/TR/2001/REC-SVG-20010904/DTD/svg10.dtd">
<svg height="1024px" preserveAspectRatio="xMidYMid meet" version="1.0" viewBox="0 0 1024 1024" width="1024px" xmlns="http://www.w3.org/2000/svg">
<g fill="#007BFF" stroke="#007BFF" stroke-width="0.5">
<path d="M0.20 0.20L1.20 0.10L3.80 0.10L13.90 0.10L53.20 0.10L205.50 0.10L796.30 0.10L968 0.10L1010.10 0.10L1020.40 0.10L1022.90 0.10L1023.80 0.30L1023.90 2.80L1023.90 9.90L1023.90 37.30L1023.90 143.50L1023.90 556.20L1023.90 909.40L1023.90 995.80L1023.90 1017L1023.90 1022.10L1023.70 1023.90L1022.70 1024L1020.10 1024L1010 1024L970.80 1024L818.30 1024L227.40 1024L55.80 1024L13.80 1024L3.50 1024L1 1024L0.10 1023.80L0 1021.30L0 1014.20L0 986.80L0 880.40L0 468.10L0 114.90L0 28.40L0 7.20L0 2L0.20 0.20M702.80 508.80C703.20 508.10 703.10 507.10 703.50 506.30C704 505.40 704.70 504.60 705.10 503.60C706.10 501.50 706.80 499.30 707.60 497.10C709.50 492.10 711.20 487.20 712.20 482C712.90 478.90 713.90 475.30 713.70 472.10C713.50 469.80 712.90 467.60 712.40 465.30C712.20 464.10 712.20 462.90 711.90 461.70C711.70 461.20 711.40 460.70 711.20 460.20C711 459.70 711.10 459.10 710.90 458.60C710.80 458.20 710.40 458.10 710.20 457.70C709.90 457 710.10 456.30 709.90 455.60C709.60 454.90 709 454.40 708.80 453.70C708.40 452.70 708.30 451.60 707.90 450.60C707.80 450.20 707.40 450.10 707.20 449.70C707 449.30 707.10 448.90 706.90 448.50C706.70 448.10 706.30 448 706.10 447.60C706 447.30 706.10 446.80 705.90 446.50C705.70 446.20 705.30 446.10 705.10 445.80C704.20 444.30 703.60 442.70 702.60 441.20C701.40 439.20 699.80 437.60 698.50 435.70C697.70 434.60 697.30 433.20 696.40 432.10C695.90 431.30 695 430.80 694.40 430.10C694.10 429.70 694 429.20 693.70 428.80C693.30 428.40 692.80 428.10 692.40 427.70C691.40 426.60 690.60 425.40 689.60 424.30C686.70 421.20 683.50 418.30 680.30 415.50C680 415.30 679.90 414.80 679.70 414.50C679.30 413.90 678.70 413.40 678.20 412.90C677.60 412.50 676.90 412.20 676.30 411.70C675.60 411.20 675.10 410.50 674.40 410C673.80 409.40 673.10 409.20 672.40 408.80C671.50 408.10 670.70 407.30 669.80 406.60C669.30 406.30 668.70 406.20 668.30 405.90C667.80 405.50 667.50 404.90 667 404.60C666.30 404 665.20 404.10 664.50 403.50C664.10 403.20 664.10 402.60 663.60 402.30C663.20 402 662.60 402 662.20 401.70C661.50 401.30 661 400.70 660.20 400.30C659.70 400.10 659.10 400.20 658.60 399.90C653.70 397.20 648.80 394.60 643.50 392.60C642.50 392.30 641.40 392.40 640.50 392C640.10 391.80 639.90 391.40 639.50 391.20C639 391 638.40 391.20 637.80 390.90C637.40 390.80 637.10 390.40 636.60 390.30C636 390.10 635.40 390.20 634.80 389.90C634.20 389.70 633.80 389.30 633.20 389.10C631.20 388.60 629.10 388.40 627.10 387.90C625.20 387.40 623.40 386.60 621.50 386.30C618.50 386 615.20 386.20 612.20 386.30C608.90 386.40 605.70 386.30 602.40 386.80C599.60 387.30 596.80 388.10 594.10 389C593.50 389.20 592.90 389.10 592.30 389.30C591.90 389.40 591.60 389.80 591.10 390C590.30 390.20 589.50 390.20 588.70 390.40C587.50 390.70 586.40 391.40 585.30 391.80C584.30 392.20 583.30 392.30 582.30 392.70C580 393.70 577.50 394.70 575.30 395.90C574.20 396.40 573.30 397.20 572.20 397.70C571.30 398.10 570.40 398.10 569.50 398.50C568.80 398.90 568.30 399.40 567.70 399.80C567.30 400 566.70 400 566.30 400.30C566.10 400.50 566 400.80 565.70 401C565.10 401.30 564.30 401.40 563.70 401.80C562.90 402.40 562.30 403.20 561.50 403.70C560.80 404.10 559.90 404 559.20 404.50C558.40 405 557.80 405.70 557.10 406.20C555.90 407 554.60 407.60 553.40 408.40C552.20 409.30 551.20 410.30 550.10 411.20C548.20 412.70 546.20 414 544.30 415.50C542 417.40 540 419.50 537.80 421.50C535.30 423.70 533.10 426.10 530.70 428.50C530 429.20 528.30 430.50 528.20 431.50C528.10 431.90 528.60 432 528.90 432C529.70 432.20 530.60 432 531.40 432.30C531.90 432.40 532.10 432.90 532.60 433C533.30 433.20 534 433 534.60 433.30C535 433.50 535.20 433.90 535.60 434C536.10 434.20 536.70 434.10 537.30 434.20C537.90 434.30 538.30 434.80 538.80 435C539.70 435.30 540.40 435.30 541.20 435.90C542.50 436.90 544.30 437.40 545.40 438.50C546.80 440 548.40 441.80 549.60 443.50C549.90 444 550 444.50 550.40 445C550.80 445.60 551.40 445.90 551.80 446.50C552 446.90 552 447.30 552.20 447.70C552.30 448 552.70 448.20 552.90 448.50C553.10 448.80 553 449.20 553.10 449.60C553.30 450 553.70 450.10 553.90 450.50C554.10 450.90 554 451.30 554.20 451.70C554.30 452 554.70 452.20 554.90 452.50C555.10 452.90 555 453.40 555.20 453.80C555.40 454.10 555.70 454.30 555.90 454.60C556.20 455.30 556 456.20 556.20 456.90C556.90 458.80 557.80 460.70 558.20 462.70C558.70 465 558.60 467.40 558.70 469.80C558.90 474.10 558.90 478.30 558.90 482.60C558.90 493.20 559.10 503.80 558.80 514.40C558.60 521.80 558.80 529.30 558.80 536.70C558.80 546.40 558.60 556 558.50 565.70C558.40 573.60 558.50 581.50 558 589.30C557.50 596.10 557 602.80 555.30 609.50C555.10 610.40 555.10 611.50 554.80 612.30C554.70 612.80 554.30 613.20 554.10 613.80C554 614.40 554.10 615 553.90 615.60C553.70 616.10 553.30 616.30 553.10 616.80C552.90 617.60 553.10 618.40 552.90 619.20C552.70 619.70 552.40 620 552.20 620.50C551.90 621.30 552 622 551.80 622.80C551.40 624.10 550.70 625.20 550.20 626.40C549.50 628.50 548.90 630.70 547.90 632.70C547.70 633.10 547.30 633.30 547.10 633.70C546.70 634.40 546.60 635.30 546.20 636C545.70 637.10 545 638.10 544.40 639.20C544.20 639.70 544.20 640.30 543.90 640.80C543.70 641.10 543.40 641.10 543.20 641.40C542.60 642.30 542 643.50 541.50 644.40C541.10 645.10 541.10 645.90 540.70 646.60C540 647.70 539 648.60 538.30 649.70C532.60 658.50 526 666.20 518.20 673.30C517.80 673.70 517.40 674.40 517 674.90C515.70 676.30 514.50 677.60 513.10 678.90C511.10 680.80 508.90 682.40 506.80 684.10C503.10 687.30 499.50 690.50 495.70 693.50C494.40 694.50 492.90 695.30 491.50 696.30C489.20 697.90 487.10 699.70 484.80 701.20C483.80 701.90 482.60 702.30 481.60 703.10C481.30 703.30 481.10 703.70 480.80 703.90C480.30 704.20 479.70 704.20 479.20 704.50C478.50 705 478 705.60 477.30 706C476.50 706.60 475.50 706.90 474.70 707.50C473 708.50 471.30 709.80 469.70 711C469.30 711.30 469.10 711.70 468.70 711.90C468.30 712.20 467.70 712 467.30 712.30C466.80 712.60 466.40 713.20 465.90 713.50C462.90 715.40 459.70 716.90 456.70 718.80C456.30 719 455.80 719.10 455.40 719.30C452.20 721.30 449 723.40 445.80 725.40C445.10 725.90 444.30 726 443.60 726.40C443 726.80 442.50 727.40 441.90 727.80C441.40 728 440.90 728 440.40 728.30C440 728.40 439.90 728.90 439.50 729C439.10 729.20 438.60 729.10 438.20 729.30C437.30 729.80 436.40 730.50 435.50 731.10C433.40 732.30 431.20 733.30 429.10 734.50C428.30 734.90 427.50 735.60 426.70 736C426.30 736.20 425.90 736.20 425.50 736.30C424.60 736.80 424 737.50 423 737.80C419.10 738.90 414.80 739.50 410.80 738.60C406.90 737.80 403.20 735.50 399.90 733.40C399.40 733.10 398.80 733.20 398.30 733C397 732.40 395.80 731.40 394.60 730.70C388.60 727.50 382.50 724.10 376.80 720.40C376 719.90 375.10 720.30 374.30 719.80C373.70 719.40 373.20 718.70 372.60 718.20C371.40 717.40 369.80 717 368.60 716.20C368.20 715.90 368 715.60 367.70 715.30C367.10 714.80 366.40 714.60 365.80 714.30C365.40 714 365.20 713.60 364.90 713.40C364.50 713.10 363.90 713.10 363.50 712.90C361.10 711.40 358.80 709.80 356.30 708.40C355.70 708 354.90 707.90 354.30 707.50C354 707.30 353.80 706.80 353.40 706.60C352.70 706.10 351.80 705.80 351.10 705.30C350.30 704.80 349.80 704 349 703.50C348.40 703.10 347.80 703 347.20 702.60C341.20 698.60 335.50 694.20 329.80 689.90C328.70 689.10 327.50 688.40 326.40 687.60C326 687.30 326.10 686.70 325.70 686.30C325.10 685.80 324.30 685.40 323.70 684.90C320.10 681.70 316.70 678.30 313.30 674.90C309.10 670.70 304.50 666.60 300.60 662C300.10 661.30 299.70 660.60 299.20 659.90C298.30 658.90 297.30 658 296.50 656.90C296.20 656.40 296.10 655.80 295.80 655.40C295.30 654.80 294.60 654.40 294.20 653.80C293.40 652.70 292.90 651.40 292.10 650.30C291.60 649.50 290.90 648.70 290.40 647.90C290.10 647.40 290.10 646.80 289.80 646.30C289.30 645.60 288.70 645 288.20 644.20C284.80 638.60 282.20 632.40 279.90 626.20C279.40 625 278.70 623.80 278.30 622.50C277.90 621.30 277.90 620 277.50 618.80C277.20 617.80 276.50 616.80 276.20 615.80C276 615 276.10 614.20 275.90 613.50C275.70 612.90 275.30 612.50 275.10 611.90C275 611.10 275.10 610.40 274.90 609.60C274.70 608.90 274.20 608.30 274.10 607.50C274 606.60 274.10 605.60 273.90 604.70C273.70 603.90 273.20 603.30 273 602.50C272.60 600.20 272.60 597.80 272.40 595.40C271.60 587.10 271.70 578.60 271.70 570.20C271.70 554.20 271.60 538.20 271.60 522.20C271.60 506.90 271.40 491.60 271.80 476.30C271.90 470.60 271.30 464.50 273.10 458.90C273.30 458.40 273.70 458.10 273.90 457.60C274.10 457.10 274 456.40 274.20 455.90C274.40 455.50 274.80 455.20 274.90 454.70C275.10 454.30 275 453.80 275.20 453.40C275.40 453.10 275.70 453.10 275.90 452.80C276.50 452 276.70 450.90 277.20 450C279 447 281.20 443.90 283.70 441.40C284.40 440.70 285.20 440.40 285.90 439.90C289.90 436.50 294.50 434 299.70 432.90C304.70 432 310.10 432.40 315.10 432.40L318.80 432.40C319.20 432.40 319.80 432.50 320 432.10C320.20 431.60 320.10 430.90 320.10 430.40L320.10 426.60C320.10 422.10 319.90 417.50 320.10 413C320.60 401.60 320.10 390.20 320.40 378.80C320.50 374 320.30 369.10 320.90 364.30C321.10 363 321.70 361.90 322 360.70C322.10 359.70 322 358.70 322.30 357.70C322.40 357.10 322.80 356.60 322.90 356C323.10 355.30 323 354.70 323.20 354C323.40 353.50 323.80 353.20 323.90 352.70C324.10 352.30 324 351.90 324.20 351.50C324.30 351.10 324.70 351 324.90 350.60C325.30 349.60 325 348.40 325.40 347.40C325.90 345.90 326.80 344.60 327.30 343.10C327.60 342.30 327.80 341.20 328.20 340.40C328.40 340.10 328.80 340 328.90 339.60C330.10 337 331.10 334.40 332.40 331.90C333.10 330.70 333.90 329.60 334.60 328.40C335 327.50 335.50 326.60 335.80 325.70C336 325.30 336 324.80 336.20 324.40C336.40 324.10 336.90 323.90 337.10 323.60C337.60 323 337.80 322.30 338.20 321.70C338.70 321.10 339.30 320.60 339.70 320C340.10 319.50 339.90 318.90 340.30 318.40C340.60 318 341 317.70 341.40 317.40C342.10 316.70 342.70 315.90 343.30 315.10C346.90 310.50 350.50 305.90 354.80 301.90C359.40 297.60 364.50 294.10 369.90 290.90C372.60 289.30 375.30 287.80 378 286.30C378.90 285.80 379.60 284.90 380.50 284.50C381.10 284.20 381.80 284.30 382.40 284.10C383.80 283.50 385.20 282.60 386.60 282C388.20 281.40 389.80 280.80 391.40 280.40C392.10 280.20 392.80 280.20 393.40 280C394 279.90 394.30 279.30 394.90 279.10C398.10 278.20 401.50 277.90 404.70 277.20C405.50 277 406 276.60 406.70 276.40C407.60 276.10 408.60 276.20 409.50 276C410.60 275.90 411.70 275.50 412.90 275.30C415.10 275.10 417.40 275.20 419.60 275.10C420.40 275 421.30 275.10 422 274.80C422.50 274.70 422.90 274.40 423.40 274.30C425.10 274.10 426.90 274.10 428.70 274.10C430.70 274.20 432.50 274.80 434.50 275C436.50 275.20 438.60 275.10 440.60 275.30C441.50 275.40 442.20 275.80 443.10 276C443.90 276.10 444.70 276 445.40 276.20C445.90 276.40 446.30 276.80 446.90 277C448 277.20 449 277.10 450.10 277.30C450.70 277.40 451.10 277.80 451.60 278C452.50 278.30 453.50 278.10 454.50 278.30C456 278.60 457.60 279.30 459 279.80C462.50 281 466.10 282.40 469.40 284C469.80 284.20 470.20 284.10 470.60 284.30C470.90 284.40 471.10 284.80 471.40 285C471.80 285.20 472.20 285.10 472.60 285.30C472.90 285.40 473.10 285.80 473.40 286C473.80 286.20 474.30 286.10 474.70 286.30C475.30 286.50 475.70 287.10 476.30 287.40C477.70 288.30 479.10 288.90 480.50 289.70C481.40 290.30 482.20 291.10 483.10 291.70C483.60 292 484.30 292.10 484.80 292.40C485.40 292.80 485.70 293.40 486.20 293.80C488.50 295.50 491 297 493.10 298.80C499 303.90 504.50 310 509.30 316.10C510.40 317.60 511.20 319.30 512.30 320.80C512.80 321.50 513.50 322.10 513.90 322.80C514.70 323.90 515.10 325.20 515.90 326.30C516.20 326.70 516.60 327.10 516.90 327.50C517.10 327.90 517 328.30 517.20 328.70C517.30 329 517.70 329.10 517.90 329.40C518.10 329.80 518.10 330.30 518.30 330.70C518.60 331.30 519 331.70 519.40 332.20C519.90 333 520 333.80 520.40 334.60C520.80 335.50 521.50 336.20 521.80 337.10C522 337.60 522 338.20 522.20 338.70C522.30 339 522.70 339.20 522.90 339.50C523.10 339.90 523 340.30 523.20 340.70C523.40 341.20 523.80 341.50 524 342C524.50 343 524.60 344.20 525.10 345.20C525.30 345.70 525.80 346.10 525.90 346.70C526.10 347.30 526 348 526.20 348.60C526.30 349 526.70 349.20 526.90 349.60C527.10 350.20 527 350.80 527.10 351.40C527.30 351.90 527.70 352.10 527.90 352.60C528.10 353.20 528 353.80 528.10 354.40C528.30 355 528.70 355.40 528.90 356C529.10 356.80 528.90 357.70 529.20 358.50C529.40 359 529.90 359.30 530 359.90C530 360.30 529.80 362 530.50 361.90C531.20 361.90 531.90 360.80 532.20 360.30C532.70 359.70 532.80 359 533.20 358.40C533.40 358.10 533.80 358 533.90 357.60C534.10 357.20 534 356.80 534.20 356.40C534.70 355.60 535.40 355 535.80 354.20C536.90 352.40 538.20 350.70 539.30 348.90C539.70 348.10 539.90 347.20 540.30 346.50C541 345.50 542.10 344.90 542.80 343.90C543.40 343.10 543.70 342.10 544.30 341.20C545 340 546.10 339.10 546.80 337.90C547.10 337.40 547.10 336.90 547.40 336.40C548.30 335 549.50 333.50 550.50 332.20C553 328.80 555.80 325.50 558.50 322.20C559.20 321.30 559.80 320.20 560.50 319.30C560.90 318.80 561.50 318.70 561.80 318.30C562.90 316.90 563.80 315.30 564.90 314C567.80 310.60 571.20 307.30 574.40 304.20C576 302.70 577.60 301.10 579.30 299.70C579.70 299.40 580.40 299.20 580.80 298.90C581.20 298.50 581.30 297.90 581.70 297.50C583.30 296.10 585.40 295 587.10 293.80C588.20 293 589.10 292 590.20 291.30C590.70 291 591.30 290.80 591.80 290.60C595.10 288.60 598.50 286.80 602.10 285.30C602.60 285.20 603.10 285.20 603.50 285C603.90 284.90 604.20 284.40 604.60 284.30C606.10 283.80 607.70 284.10 609.20 283.70C610.60 283.40 612.10 282.50 613.50 282.30C614.30 282.10 614.90 282.80 615.60 283C616.50 283.30 617.40 283.10 618.30 283.30C618.80 283.40 619 283.80 619.50 284C619.90 284.20 620.40 284.10 620.90 284.20C621.40 284.30 621.80 284.70 622.30 284.90C623 285.20 623.70 285 624.40 285.20C624.90 285.40 625.10 285.90 625.60 286C626.30 286.20 627 286 627.70 286.30C628.90 286.80 630 287.70 631.10 288.30C639.10 292.30 645.80 297.80 652.30 303.90C653.60 305.10 654.80 306.30 656.10 307.50C656.60 308 657.40 308.30 657.80 308.80C658.20 309.30 658.40 309.90 658.80 310.40C660.20 311.80 661.80 313 663.10 314.40C664.50 316 665.70 317.80 667 319.40C669.20 322.10 671.60 324.50 673.60 327.40C674.70 329 676.10 330.40 677.30 332C677.70 332.60 677.80 333.30 678.20 333.90C679.30 335.50 680.80 337 681.90 338.50C682.40 339.10 682.60 339.90 683.10 340.60C683.30 341 683.80 341.20 684 341.60C684.40 342.10 684.60 342.80 685 343.30C686.60 345.70 688.20 348 689.80 350.40C690.10 350.80 690 351.30 690.20 351.70C690.30 352 690.70 352.10 690.90 352.40C691.20 352.90 691.20 353.40 691.40 353.90C691.90 354.70 692.50 355.30 693 356C694.30 358.10 695.40 360.30 696.60 362.40C697 363.10 697.50 363.60 697.90 364.30C698.10 364.80 697.90 365.30 698.20 365.80C698.50 366.30 699 366.60 699.40 367.10C700.30 368.50 701.10 370.10 702 371.60C702.50 372.70 702.70 373.90 703.20 374.90C703.60 375.60 704.30 376.20 704.70 377C705.30 378.20 705.60 379.50 706.10 380.70C706.30 381 706.70 381.20 706.90 381.50C707.10 381.90 707 382.50 707.30 382.90C708.40 385.10 709.80 387.30 711 389.60C711.80 391.20 712.30 393.10 713.10 394.70C713.30 395 713.60 395.10 713.80 395.40C714.10 395.80 714.10 396.40 714.30 396.90C714.60 397.50 715.20 397.90 715.40 398.50C716.50 400.80 717.20 403.30 718.10 405.60C718.30 406 718.70 406.10 718.90 406.50C719.10 406.90 719 407.40 719.20 407.80C719.40 408.20 719.70 408.50 719.90 408.90C720.10 409.50 719.90 410.10 720.20 410.70C720.40 411 720.80 411.20 720.90 411.50C721.50 412.70 722 414.10 722.50 415.30C722.80 416.10 722.80 417 723.20 417.70C723.40 418.10 723.80 418.20 723.90 418.60C724.10 419.20 724 419.80 724.20 420.40C724.50 421 724.90 421.50 725.20 422.10C726 424 726.70 426 727.50 427.90C727.80 428.80 727.80 429.80 728.10 430.60C728.30 431 728.70 431.20 728.90 431.60C729.10 432.10 729 432.80 729.10 433.30C729.20 434 729.70 434.40 729.90 435C730.10 435.60 730 436.20 730.20 436.70C730.40 437.30 731 437.80 731.30 438.40C731.80 439.50 731.70 440.60 732.10 441.70C732.50 442.80 733.20 443.70 733.60 444.90C734.20 446.90 734.50 449 735 451C735.20 451.60 735.70 452 735.90 452.60C736.10 453.20 736 454 736.20 454.60C736.30 455 736.70 455.20 736.90 455.60C737.10 456.10 737 456.80 737.10 457.30C737.30 458 737.70 458.50 737.80 459.20C738.10 461.80 737.90 464.40 737.80 467C737.70 472.40 737.20 477.80 736 483.10C735.80 483.90 735.20 484.50 735 485.30C734.10 488.80 733.30 492.30 731.90 495.60C731.80 496 731.30 496.10 731.10 496.50C729.60 499.80 728.70 503.40 727 506.60C720.10 519.40 712.20 531.20 703 542.50C699.70 546.50 696.10 550.10 692.70 553.90C691.70 555.10 690.90 556.40 689.80 557.50C686.50 561 682.80 564 679.30 567.20C679 567.50 678.90 568 678.70 568.30C678.30 568.90 677.70 569.40 677.20 569.90C674.10 572.90 670.80 575.60 667.60 578.50C660.90 584.50 654 590.20 647.20 596.10C645.70 597.40 644.30 599.20 642.30 599.90C641.40 600.30 640.10 600.30 640.10 599C640 598.10 640.60 597.20 641 596.40C641.80 594.70 642.70 593.20 643.80 591.70C647 587.50 649.90 583.10 653 578.90C655.40 575.50 657.60 572 660.10 568.70C661.20 567.20 662.50 565.90 663.60 564.40C663.90 563.80 664 563.20 664.40 562.60C665.10 561.50 666.20 560.60 667 559.60C668.30 557.90 669.30 556 670.60 554.30C671.80 552.70 673.30 551.20 674.60 549.50C675.30 548.50 675.60 547.30 676.30 546.30C677.20 545.10 678.60 544 679.60 542.80C680.60 541.40 681.40 539.90 682.40 538.50C683.40 537.20 684.60 536.10 685.50 534.80C685.90 534.30 686 533.70 686.40 533.20C687 532.30 688.10 531.70 688.80 530.70C689.30 530 689.40 529 689.90 528.20C690.40 527.30 691.10 526.70 691.70 525.80C691.90 525.30 691.90 524.70 692.30 524.30C693.70 522.60 695.40 520.70 696.70 518.80C697.10 518.20 697.20 517.50 697.40 516.90C697.90 515.80 698.50 514.80 699.20 513.80C700 512.50 701.10 511.50 701.70 510.10C701.80 509.70 701.90 508.80 702.40 508.70C702.90 508.70 702.80 509.40 702.90 509.70C703.30 509.50 703.40 509.20 703 508.90M703.40 509.10C705 507.30 705.90 504.60 706.80 502.40C707.10 501.70 707.60 501.10 707.90 500.40C708.80 498.40 709.50 496.40 710.20 494.40C710.40 493.70 710.80 493.20 711.10 492.50C712.90 487.20 714.30 481.50 714.50 475.90C715.40 456.30 704.20 438.10 691.30 424.20C686.20 418.60 680.80 413.30 674.80 408.60C662.40 398.80 647.90 391.60 632.60 387.60C626 385.90 619.10 384 612.30 384.20C606.70 384.30 600.90 385.60 595.50 387C580.30 390.80 566.20 397.80 553.50 406.70C545.40 412.40 537.80 418.90 530.80 425.90L525.80 430.90C525 431.70 523.90 432.60 523.50 433.70C525.50 434.40 528 434 530.10 434.20C534.80 434.70 539.40 436.10 543.20 439.10C545.90 441.30 548.10 444.10 550 447C553.10 451.90 555.60 457.20 556.60 463C557 465.50 556.80 468.10 556.80 470.60C556.80 474.10 556.90 477.60 556.90 481.10L556.90 531.90C556.90 543.70 556.80 555.50 556.70 567.30C556.60 576.50 556.90 585.70 556 594.80C555 605 552.70 615.10 549.40 624.70C543.60 641.20 533.30 655.70 521.30 668.20C515.30 674.50 508.90 680.50 502.20 686.10C488.60 697.20 473.80 706.50 458.90 715.60C450.90 720.50 442.70 725.20 434.50 729.70C429.90 732.20 425.30 735.30 420.30 736.80C418.10 737.40 415.30 738.30 413 738.10C411 737.90 409 736.60 407.20 735.60C404.60 734.20 402 732.90 399.40 731.50C391 727 382.70 722.40 374.50 717.60C351 703.60 328 688.80 309.20 668.70C302 660.90 295.20 653.10 289.80 643.90C284.50 634.80 280.40 624.70 277.50 614.50C276.40 610.30 275.60 606 274.90 601.70C274.50 599.60 274 597.50 273.80 595.40C273.50 592.10 273.60 588.80 273.60 585.50C273.50 579.60 273.50 573.80 273.40 567.90C272.80 544.80 273.10 521.60 273.10 498.50C273.10 492.10 273.20 485.70 273.20 479.30C273.20 476.30 273.30 473.30 273.30 470.30C273.30 468.20 273.10 466 273.40 464C274.20 459.20 276.50 454.30 278.90 450.20C279.90 448.60 280.90 446.80 282.30 445.50C282.70 445.10 283.40 445.20 283.70 444.80C283.90 444.60 283.90 444.20 284 443.90C284.30 443.40 284.90 442.90 285.30 442.50C290.70 437.30 297.10 434.40 304.50 433.70C308.80 433.30 313.20 433.40 317.50 433.40C318.60 433.40 321.20 433.90 321.70 432.60C322 431.90 321.80 431 321.80 430.30L321.80 425.40L321.80 408.60C321.80 400.10 322 391.70 322 383.20C322 377.30 321.60 371.10 322.30 365.20C322.50 363.80 322.90 362.40 323.30 361C324.20 356.90 325.30 352.90 326.60 349C330.70 337.30 336.50 326.60 343.90 316.70C347.50 311.80 351.50 306.90 356 302.80C363.50 296 372.10 290.60 381.30 286.10C382.50 285.50 383.90 285.30 385.10 284.70C385.50 284.50 385.70 284 386.20 283.80C390.10 282.10 394.30 280.80 398.40 279.70C404.70 278 411.20 277.40 417.70 276.80C419.20 276.60 420.70 276.30 422.20 276.20C425.10 276 428 276.20 430.90 276.30C440.80 276.70 450.70 278.40 460.10 281.60C472.40 285.90 483.90 292.90 493.70 301.50C506.80 313.10 516.80 328.20 523.20 344.40C525.40 349.90 526.80 355.40 528.10 361.10C528.50 362.70 528.80 364.20 529 365.80C529 366.40 528.90 367.30 529.30 367.80C529.60 368.10 529.90 367.60 530 367.40C530.40 366.70 530.80 366 531.10 365.30C532.80 362.30 534.50 359.30 536.30 356.40C538.30 352.90 540.50 349.50 542.70 346.10C543.30 345.20 544.10 344.40 544.70 343.50C547.90 338.50 551.10 333.60 554.70 328.90C556.70 326.40 558.70 324 560.60 321.50C561 321 561.40 320.50 561.80 320.10C562.40 319.70 562.80 320 562.80 319.10L562.20 319.80M562.90 319C563.60 317.70 565 316.10 566.10 315C566.30 314.80 566.70 314.90 566.90 314.70C567.10 314.40 567.20 313.90 567.40 313.60C570.30 310 573.80 307 577 303.80C583.90 297 591.90 291.30 600.80 287.50C605 285.60 610.20 284 614.80 284.20C616.70 284.30 618.80 285.10 620.60 285.70C625.40 287.20 630.10 289.20 634.30 291.90C636.50 293.30 638.70 294.50 640.80 296.10C651.70 304.10 661.10 314.30 669.70 324.70C677.50 334.20 684.20 344.80 690.60 355.30C703.50 376.40 713.90 398.80 723.10 421.70C726.20 429.20 729.10 436.80 731.60 444.50C733 448.60 734.70 453 735.40 457.30C736.30 463 736.30 469.20 735.80 474.90C735.10 481.70 732.90 488.30 730.50 494.60C727.80 501.90 724.20 508.70 720.20 515.30C717.10 520.50 713.90 525.70 710.20 530.60C707.10 534.60 704.20 538.60 701 542.40C688.40 557.20 674.20 570.70 659.60 583.40C655.30 587.20 650.90 590.90 646.50 594.70C645.60 595.40 644.70 596.20 643.80 597C643.20 597.60 642.70 598.10 642 597.50L641.90 597.60L641.80 598.30L642.60 598.10M385.40 284.80L385.70 285M364.50 296.20C364.50 296.90 364.30 297 363.60 297M409.10 433.50C409.60 433.90 410 433.90 410.50 433.50C409.70 432.90 409 433.50 408.10 433.50C405.90 433.50 403.70 433.70 401.50 433.50C397.90 433.10 394.30 433.50 390.70 433.50C384 433.50 377.20 433.40 370.50 433.40L361.30 433.40C360.70 433.40 358.60 433.70 358.20 433.20C357.80 432.80 358.10 431.50 358.10 430.90C358 428.80 358 426.80 358 424.70L358 400.70C358 395.10 358.10 389.40 358.20 383.80C358.40 377.20 358.40 370.90 360 364.50C365.70 341.70 383.30 322.90 405.80 316C409.80 314.80 414 313.60 418.20 313.30C421.30 313.10 424.30 313.10 427.40 313.10C429.10 313.10 431.10 312.90 432.70 313.30C433.50 313.50 434 314.20 434.70 314.60C436 315.10 437.60 315.50 439 315.80C441.20 316.40 443.60 316.60 445.80 317.30C446.30 317.40 446.60 317.90 447.10 318C448.20 318.50 449.50 318.90 450.70 319.20C451 319.30 451.50 319.20 451.80 319.40C452.10 319.50 452.20 319.90 452.50 320C452.90 320.20 453.40 320.10 453.80 320.30C454.60 320.70 455.20 321.40 456 321.80C462.50 325.10 468.30 329.50 473.30 334.90C474.50 336.20 475.60 337.70 476.80 339.10C478.70 341.40 480.40 343.70 482.20 346.20C482.70 346.90 483.50 347.60 483.90 348.40C484.50 349.40 484.70 350.70 485.20 351.80C486.60 355 487.90 357.90 489 361.20C489.20 361.80 489.70 362.20 489.90 362.80C490.60 365 490.50 367.60 490.80 369.90C491.90 378.40 491.60 387.10 491.60 395.70L491.60 423.30L491.60 430C491.60 430.50 491.80 432 491.40 432.30C491.10 432.60 490.10 432.40 489.60 432.40L484.50 432.40L465 432.40L389.30 432.40C382.10 432.40 374.90 432.30 367.70 432.30C365.90 432.30 364 432.30 362.20 432.20C361.70 432.20 360.50 432.30 360.20 431.90C359.90 431.70 360 431.10 360 430.70L360 427.30L360 413.60C360 403.70 359.90 393.90 360.10 384C360.20 379.20 359.70 374.10 360.30 369.30C360.50 368.20 360.80 366.70 361.20 365.60C361.40 365.10 361.70 364.60 361.90 364.10C362.10 363.50 362 362.80 362.20 362.10C362.50 360.80 363.20 359.60 363.70 358.30C363.90 357.70 363.90 356.90 364.20 356.30C365.50 353.40 366.80 350.50 368.40 347.80C368.80 347.10 369.50 346.50 369.90 345.80C370.50 344.70 370.80 343.40 371.60 342.30C374.10 338.90 377 335.50 380.10 332.70C381.10 331.80 382.30 331.10 383.40 330.20C384.10 329.60 384.70 328.90 385.40 328.30C386.60 327.40 388 326.80 389.20 326C389.60 325.80 389.80 325.30 390.10 325.10C391.40 324.10 393 323.10 394.30 322.30C394.70 322 395.30 322.20 395.70 322C396.20 321.70 396.60 321.20 397.10 320.90C401 319 405.30 317.50 409.50 316.30C414.80 314.80 420.20 314.40 425.70 314.20C427.40 314.10 429.10 314.10 430.80 314C431.60 314 432.50 314.10 433.20 313.60M433.80 313.80C434.60 313.40 435.70 313.70 436.60 313.80C438.70 314.10 440.80 314.60 442.90 315.10C452.30 317.50 461.60 322.30 468.80 328.70C473.30 332.70 477.70 337.10 481.30 342C482.40 343.50 483.20 345.20 484.20 346.80C488.30 353.40 491.30 361 492.60 368.80C492.80 370.40 492.70 371.90 492.80 373.50C493 376.90 493.10 380.20 493.10 383.60C493.20 391.40 493.20 399.30 493.20 407.20C493.20 413.70 493.30 420.30 493.30 426.80C493.30 428.50 493.60 430 493.60 431.70C493.60 432.10 493.80 433.10 493.50 433.40C493.30 433.70 492.80 433.40 492.50 433.40C491.50 433.40 490.60 433.40 489.60 433.40C485.60 433.40 481.50 433.20 477.50 433.40C474.40 433.50 471.30 434.70 468.20 434.90C463.30 435.20 458.30 434.90 453.40 434.80C449.30 434.70 445.10 434.60 441 434.60C439.80 434.60 438.70 434.80 437.50 434.80C436.80 434.80 436.10 434.20 435.50 434.20C435.10 434.20 434.60 434.70 434.20 434.80C433.20 435.10 432 435.10 430.90 435C430 435 429.10 435.10 428.20 434.90C427.80 434.80 427.60 434.40 427.20 434.40C426.40 434.30 425.40 434.70 424.60 434.80C422.20 435 419.70 435 417.30 435C416.40 435 412.50 435.20 413.60 433.70C412.80 433.30 411.40 433.50 410.50 433.50M566.50 314.60L566.90 314.20M493.30 429.50C492.50 430.60 493.40 432.20 492.80 433.30M321.80 432.70C322.10 433.30 321.80 433.70 321.20 433.30M471.60 434.20C470.30 433.30 468.40 434.40 467.10 433.40C467.70 432.90 468.60 433.10 469.40 433.10L474.70 433.10C475.50 433.10 476.40 432.90 477 433.40M417.90 433.60C417.30 434.10 416.10 434.20 415.40 433.70C416.40 432.80 417.30 433.70 418.40 433.60C421 433.10 423.80 433 426.40 433.20C427.20 433.30 427.90 433.50 428.80 433.50C441.60 433.50 454.30 433.40 467.10 433.40M427 433.50C426.40 433.90 425.70 433.80 425 433.80C423.70 433.80 422.20 433.70 420.90 433.80C420.20 433.90 419.30 434.10 418.70 433.60M435.60 433.60L435.60 434.10M413.60 433.70L415.40 433.70M564.60 434.10C565.60 434 566.50 434.20 567.50 434.20C569.10 434.20 570.80 434.20 572.40 434.50C572.90 434.60 573.30 434.90 573.80 435C574.70 435.20 575.50 435.10 576.40 435.30C577.30 435.50 578.20 436 579.10 436.10C579.90 436.20 580.70 436.10 581.40 436.30C581.80 436.40 582.10 436.80 582.50 437C583.10 437.20 583.80 437 584.40 437.20C584.90 437.40 585.10 437.80 585.50 438C586.10 438.20 586.90 438 587.50 438.30C587.90 438.40 588.10 438.90 588.50 439C589.10 439.30 589.90 439.20 590.50 439.40C592.20 440 593.80 440.90 595.20 441.90C595.70 442.20 596.20 442 596.70 442.30C598.80 443.60 601 445.10 602.40 447.30C603.90 449.80 602.40 452.10 600.60 454C599.50 455.10 598.40 455.70 597.10 456.60C596.40 457 595.80 457.60 595 457.90C593.90 458.30 592.80 458.30 591.70 458.70C590.90 458.90 590.20 459.30 589.40 459.50C588.90 459.60 588.80 459.10 588.40 459.20C588 459.30 587.80 459.80 587.30 459.90C584.70 460.40 581.20 460.50 578.60 459.90C578.20 459.80 578 459.50 577.60 459.40C577.20 459.30 576.70 459.40 576.20 459.30C574.90 459.10 573.30 458.50 572.10 458C570.90 457.50 569.90 456.40 568.90 455.60C568.20 455 567.20 454.70 566.50 454.10C566.10 453.70 566.10 453.20 565.70 452.80C565.40 452.40 564.80 452.10 564.50 451.60C563.90 450.80 563.60 449.80 563.10 448.90C562.80 448.50 562.30 448.20 562.10 447.70C561.80 447 561.80 446.20 561.40 445.50C561.10 444.90 560.60 444.50 560.20 443.90C560 443.40 560.10 443 559.90 442.50C559.80 442.10 559.50 441.80 559.30 441.40C559 440.60 559 439.80 559 439C559 438.10 557.80 437.90 558.20 437C559.20 434.40 562.30 434.40 564.60 434.10M629.50 445.30C628.10 444.10 630.30 443.30 631.20 442.90C632.40 442.30 633.20 441.30 634.30 440.60C635.20 440.10 636.10 440.30 637.10 440C637.60 439.80 637.90 439.40 638.40 439.20C638.80 439.10 639.20 439.20 639.60 439C639.90 438.90 640.20 438.50 640.50 438.40C641.10 438.20 641.70 438.20 642.30 438C642.90 437.80 643.40 437.30 644.10 437.10C649.20 435.50 654.90 434.80 660.20 434.40C662.80 434.20 666 433.70 668.50 434.60C670.40 435.40 670.10 437.20 669.90 438.90C669.80 440.40 669 441.70 668.40 443.10C667.40 445.40 666.50 447.80 664.90 449.80C662.70 452.70 660.60 455.50 657.40 457.50C655.40 458.60 653.30 459.20 651.10 459.90C649.70 460.30 648.40 461 646.90 461.10C645.70 461.10 645.10 460.60 644.10 460.30C643.40 460.10 642.80 460.20 642.10 460C641.70 459.90 641.40 459.60 641 459.40C640.60 459.30 639.90 459.80 639.30 459.60C638.30 459.40 637.30 458.90 636.30 458.60C635 458.30 633.70 458.10 632.50 457.50C630.80 456.70 629.30 455.50 627.80 454.50C627.30 454.20 626.70 454 626.40 453.60C626.10 453.20 626.10 452.80 625.90 452.40C625.70 452.10 625.40 452 625.30 451.70C624.60 450.20 625.10 448.20 626 446.90C626.60 446.10 627.30 445.40 628.10 444.80C628.80 445.60 628.30 446.20 627.70 446.90C626.90 447.80 625.80 448.90 626.30 450.20C627 451.90 628.80 453.30 630.20 454.30C634.20 457.20 639.40 458.50 644.30 459C650.80 459.60 657.40 456.60 661.70 451.80C663.30 449.90 664.60 447.60 665.70 445.40C666.70 443.50 667.60 441.50 668.10 439.50C668.40 438.50 668.70 437.60 668.20 436.70C667.60 435.60 666.50 435.30 665.40 435.10C662.90 434.80 660 435.40 657.50 435.80C650 437 642.60 438.50 635.70 441.80C634.40 442.50 632.80 443.20 631.60 444.10C631.40 444.30 631.40 444.60 631.10 444.80C630.90 445 630.40 444.80 630.10 444.90C629.50 445.20 629.20 445.80 628.60 446.10M563.10 435.20C565.90 434.90 569.10 435.60 571.90 436C579.20 437 586.30 439 592.90 442.30C596 443.80 599.80 445.50 601.70 448.50C602.70 450.20 600.80 451.90 599.60 452.90C596.40 455.70 592.20 457.80 588 458.50C584.70 458.90 581.20 459.30 577.90 458.60C572.90 457.60 568.40 454.30 565.50 450.20C563.40 447.20 561.80 444 560.60 440.50C560.30 439.60 559.40 438 559.70 437C560.10 435.70 561.90 435.40 563.10 435.20M283 444.90L283.80 444M283.40 444.30L283.80 444.70M630.50 444.70L631.30 444.30M628.20 444.80L628.90 444.80M628.70 444.80L628.60 445.20M344.30 542.60C344.70 543.50 344.30 543.50 344.30 544.40C344.30 545.30 344.40 546.30 344.50 547.20C344.90 549.80 344.80 552.50 344.80 555.10C344.80 558.10 344.90 561 344.90 564C344.90 581.10 345 598.20 345 615.30L345 631.70L345 635.80C345 636.20 345.20 637 344.80 637.30C344.50 637.70 343.60 637.50 343.20 637.50L338.50 637.50L324.90 637.50C322.90 637.50 320.30 637.90 318.40 637.40C317.90 637.20 318.10 636.20 318.10 635.80L318.10 630.90C318.10 624 318 617 318 610.10C318 580.60 318 551.10 318 521.60L318 497.80L318 492.20C318 491.70 317.80 490.60 318.40 490.40C319.20 490.20 320.20 490.40 321 490.40L326.70 490.40C332.60 490.40 338.60 490.30 344.50 490.30C346.40 490.30 348.40 490.50 350.30 490.30C350.90 490.20 352.30 489.90 352.80 490.30C353 490.50 353.10 491.10 353.20 491.40C353.40 492.30 353.90 493.10 354.20 493.90C355.40 497.10 356.40 500.50 357.60 503.70C357.90 504.40 358.50 504.80 358.70 505.40C358.90 505.70 358.70 506 358.70 506.30C358.80 506.90 359.10 507.50 359.30 508.10C360.10 510.60 361.10 513.10 362 515.60C364.90 523.70 367.90 531.80 370.80 540C373 546.30 375.20 552.60 377.50 558.90C378.10 560.40 378.60 562 379.10 563.50C379.30 563.90 379.50 564.80 380 565C380.60 565.10 380.90 563.60 381 563.20C381.80 561.10 382.50 558.90 383.20 556.80C386.50 547.70 389.90 538.70 392.90 529.60C396.10 520 399.60 510.50 403 501C403.90 498.60 404.70 496.20 405.60 493.80C405.90 492.90 406.20 491.40 407 490.80C407.60 490.30 408.90 490.50 409.60 490.50C411.70 490.40 413.90 490.40 416 490.40L432.50 490.40C435.20 490.40 438.10 490.20 440.80 490.40C441.60 490.50 441.30 492.10 441.30 492.70L441.30 500.10L441.30 531.90L441.30 609.20L441.30 629.70L441.30 635.10C441.30 635.60 441.50 636.70 441.20 637.20C441 637.50 440.40 637.40 440 637.40L436.60 637.40L425.70 637.40C424.90 637.40 424 637.50 423.20 637.40C422.60 637.30 422.30 637 421.80 637.40C422.20 637.70 422.30 637.70 422.70 637.40M488.10 517.10C487.60 517.10 486.60 516.60 487.30 516C487.70 515.80 488.40 515.80 488.80 515.80C489.90 515.80 490.90 515.70 492 515.70C495.90 515.70 499.90 515.70 503.80 515.60C508.90 515.50 514 515.30 519.10 515.30C520.80 515.30 522.50 515.40 524.20 515.10C524.70 515.10 525.30 515.20 525.80 514.90C526.10 514.70 526 514.10 526 513.70C526 512.50 526.10 511.10 526 509.90C525.80 508.10 525.90 506.10 525.90 504.30C525.90 501.70 525.80 499.20 525.80 496.60L525.80 493.30C525.80 493 525.90 492.30 525.60 492.10C525.10 491.60 523 492 522.30 492L513 492C505 492 497.10 492.10 489.10 492.10C484.70 492.10 480.10 491.70 475.80 492.20C472.70 492.50 469.20 492.30 466.10 492.30C465.30 492.30 463.20 491.90 462.60 492.60C462.10 493 462.30 495.10 462.30 495.80C462.30 498.80 462.20 501.90 462.20 504.90C462.20 516.90 462 528.80 462 540.80L462 609.20L462 628.30L462 633.70C462 634.30 461.80 635.30 462.10 635.90C462.20 636.30 463.10 636.10 463.40 636.10C464.80 636.10 466.30 636.20 467.70 636.20C469.90 636.20 472.20 636.40 474.40 636.40C475.90 636.40 477.60 636.20 479 636.50C479.80 636.70 480.40 637.70 481.30 637.90C482.40 638.10 483.70 638.20 484.90 638.30C485.20 638.30 486 638.40 486.20 638.70C486.30 639 485.80 639.20 485.60 639.20C485 639.40 484.30 639.50 483.60 639.50C481.10 639.50 478.50 639.50 476 639.50C475.70 639.50 473.40 639.40 474 638.80C475.10 637.60 477.20 638.70 478.40 637.60C477.40 637 475.50 637.40 474.30 637.40L464.70 637.40L461.40 637.40C461 637.40 460.40 637.50 460.20 637.20C459.80 636.70 460 635.70 460 635.20L460 630.10L460 609.80L460 530.60L460 500.10L460 492.80C460 492.30 459.70 490.70 460.30 490.50C460.70 490.30 461.40 490.40 461.80 490.40L465.10 490.40L476.80 490.40L513 490.40L523.40 490.40C524.60 490.40 526.60 490 527.70 490.50C528.20 490.70 528 491.50 528 491.90L528 496.20L528 511.80L528 515.70C528 516 528.10 516.80 527.80 517C527.40 517.40 525.90 517.10 525.30 517.10C523 517.10 520.50 516.90 518.20 517.10C514.60 517.40 510.90 517.20 507.30 517.20L488.20 517.20C488.20 520.40 488.30 523.70 488.20 526.90C488.10 528.30 487.80 529.80 487.80 531.30C487.80 532.80 488.80 535.50 487.80 536.80C487.30 536.10 487.30 533.90 487.80 533.20M386.80 617.80C385.50 618 386.30 620.10 385.10 620.80C384.40 621.30 383.50 621.20 382.70 621.30C380.80 621.50 378.70 621.70 376.80 621.40C376.10 621.30 375.30 621.50 374.60 621.10C374.10 620.90 374.10 620.40 373.90 620C373.80 619.70 373.40 619.60 373.20 619.20C373 618.70 373.10 618.10 372.90 617.60C372.80 617.20 372.30 617 372.20 616.60C372 616.10 372.10 615.50 371.90 615C371.70 614.40 371.20 614 371.10 613.30C371 612.80 371.10 612.20 370.90 611.70C370.80 611.30 370.40 611.10 370.20 610.70C369.90 610 370.20 609.20 369.80 608.50C369.70 608.20 369.30 608 369.20 607.60C369 607 369.10 606.40 368.90 605.90C368.70 605.40 368.30 605 368.10 604.50C367.90 603.90 368 603.30 367.80 602.70C367.40 601.60 366.60 600.60 366.30 599.40C366 598.70 366 597.90 365.80 597.20C365.50 596.30 364.90 595.50 364.50 594.60C364.20 593.80 364.20 592.90 363.90 592.10C363.50 591.10 362.90 590.20 362.50 589.20C362.20 588.40 362.20 587.40 361.90 586.60C361.80 586.20 361.40 586.10 361.20 585.70C361 585 361.10 584.30 360.90 583.70C360.80 583.20 360.30 583 360.10 582.50C360 582 360.10 581.50 359.90 581C359.70 580.40 359.30 580 359.10 579.40C359 578.80 359.10 578.20 358.90 577.70C358.80 577.30 358.40 577.10 358.20 576.70C357.90 576.10 358.10 575.50 357.90 574.90C357.70 574.50 357.40 574.20 357.20 573.80C357 573.40 357.10 572.90 356.90 572.50C356.70 572.20 356.40 572 356.20 571.70C355.90 571 356.20 570.20 355.80 569.50C355.20 568.20 354.30 566.90 353.80 565.40C353.40 564.20 353.40 562.70 352.90 561.60C352.80 561.20 352.30 561 352.20 560.60C352 560 352.10 559.40 351.90 558.90C351.70 558.40 351.30 558 351.10 557.50C350.90 556.90 351 556.20 350.80 555.60C350.10 553.90 349.20 552.40 348.60 550.70C348.10 549.40 347.90 548.10 347.30 546.80C346.80 545.50 346.40 544.10 346 542.70C345.80 542 345.70 541.20 344.80 541.10C344.10 541 343.50 541.50 343.40 542.20C343.20 544.10 343.40 546.20 343.40 548.10C343.40 555.90 343.30 563.80 343.30 571.60L343.30 619.40L343.30 631.70L343.30 634.90C343.30 635.20 343.40 635.90 343.20 636.10C343 636.40 342.10 636.30 341.80 636.30L337.70 636.30L326.90 636.30C324.80 636.30 322.60 636.50 320.50 636.10C319.80 635.90 320 634.90 320 634.30L320 628.60L320 604.30L320 519.70L320 499L320 493.90C320 493.50 319.80 492.50 320.20 492.20C320.40 492 321 492.10 321.30 492.10L324.10 492.10L335 492.10L347 492.10L350.30 492.10C350.70 492.10 351.30 492 351.70 492.20C352.90 492.90 352.80 495.20 353.20 496.30C353.30 496.70 353.70 497 353.90 497.40C354.10 498 354 498.70 354.20 499.30C354.40 499.80 354.80 500 354.90 500.50C355.10 500.90 355 501.30 355.20 501.70C355.30 502.10 355.80 502.20 355.90 502.60C356.10 503.10 356 503.60 356.10 504.10C356.30 504.60 356.70 504.90 356.90 505.40C357.10 506 357.10 506.80 357.30 507.40C357.90 509.40 359.10 511.20 359.80 513.20C360 513.90 359.90 514.70 360.20 515.40C360.70 516.60 361.30 517.70 361.70 519C361.90 519.80 361.90 520.70 362.10 521.50C362.30 522.20 362.90 522.80 363.10 523.50C363.70 525.10 364.20 526.60 364.80 528.20C365 528.70 364.90 529.20 365.10 529.70C365.30 530.10 365.80 530.20 365.90 530.60C366.80 532.80 367.40 535.30 368.10 537.50C368.30 538 368.70 538.10 368.90 538.50C369.10 539 369 539.70 369.20 540.20C369.30 540.70 369.70 541 369.80 541.40C370.10 542.10 369.90 543 370.20 543.70C370.40 544.10 370.80 544.20 370.90 544.60C371.20 545.30 371.20 546.10 371.50 546.80C371.80 547.50 372.40 548 372.60 548.70C372.70 549 372.40 549.30 372.50 549.70C372.80 550.50 373.50 551.10 373.80 552C374.10 553.20 373.80 554.50 374.20 555.70C374.50 556.40 375.20 557 375.60 557.80C376 558.80 376.20 560 376.60 561C377 562 377.50 563 377.80 564C378 564.50 377.90 565.30 378.30 565.70C378.60 566 379.30 566 379.70 566C380.10 565.90 380.70 565.90 381.10 565.70C382.90 564.90 382.60 562.20 383.10 560.70C383.30 560.20 383.80 560 383.90 559.60C385.30 556.50 385.80 553.20 387.10 550.10C387.90 548.20 388.40 546.30 389.10 544.40C390 542.10 391.10 539.70 391.90 537.30C392.10 536.70 392 536.10 392.20 535.50C392.30 535 392.70 534.70 392.90 534.20C393.10 533.60 393 533.10 393.20 532.50C393.40 532.10 393.80 531.90 393.90 531.50C394.10 530.80 393.90 530.10 394.20 529.40C394.80 528 395.60 526.70 396.10 525.30C398.30 519.10 400.20 512.80 402.70 506.70C403 506 402.90 505.20 403.10 504.50C403.40 503.90 403.80 503.30 404.10 502.70C404.90 500.60 405.50 498.30 406.30 496.20C406.70 495.30 407 493.10 408 492.70C408.70 492.40 409.50 492.40 410.20 492.40C411.80 492.30 413.50 492.30 415.10 492.20C420.70 492 426.20 492 431.80 492L437.20 492C437.60 492 438.80 491.90 439.10 492.30C439.40 492.70 439.30 493.70 439.30 494.20L439.30 499.30C439.30 505.80 439.40 512.20 439.40 518.70C439.40 543.60 439.60 568.60 439.60 593.50L439.60 625.70L439.60 633.60C439.60 634.10 439.90 635.90 439.40 636.20C439.10 636.40 438.50 636.30 438.10 636.30L434.70 636.30L421.50 636.30L417.60 636.30C417.30 636.30 416.50 636.40 416.30 636.10C416.10 635.90 416.20 635.20 416.20 634.90L416.20 631.80L416.20 619.80C416.20 599.80 416.40 579.70 416.40 559.70C416.40 555 416.40 550.20 416.70 545.50C416.80 544.60 417.20 541.30 415.50 541.40C414.90 541.40 414.30 542.30 414 542.80C413.30 543.70 413.30 544.60 412.90 545.60C412.80 546 412.30 546.10 412.20 546.40C412 546.90 412.10 547.50 412 548C411.70 549.10 411.40 550.20 411 551.20C410.70 551.70 410.30 552.10 410.10 552.70C409.90 553.30 410 553.80 409.80 554.40C409 557.20 407.60 559.90 406.60 562.70C406.10 564.20 405.80 565.80 405.10 567.20C404.80 567.70 404.40 568 404.20 568.50C403.90 569 404.10 569.60 403.90 570.20C403.70 570.70 403.30 571.10 403.10 571.60C402.70 572.90 402.50 574.20 402.10 575.50C400.90 578.50 399.50 581.50 398.40 584.50C398.10 585.20 398.20 586.10 397.90 586.80C397.70 587.20 397.40 587.50 397.20 587.90C396.90 588.50 397 589.20 396.80 589.80C395.90 592.10 395 594.40 394.20 596.70C393.90 597.40 393.40 597.90 393.20 598.60C393 599.20 393.10 599.80 392.90 600.40C392.80 601 392.30 601.30 392.10 601.80C392 602.40 392.10 603.10 391.90 603.70C391.70 604.20 391.30 604.60 391.10 605.20C391 605.60 391.10 606.20 390.90 606.60C390.80 607 390.40 607.10 390.20 607.50C390 608.10 390.10 608.60 389.90 609.20C389.70 609.70 389.40 610 389.20 610.50C389 611.20 389.10 612 388.90 612.60C388.70 613 388.30 613.10 388.10 613.50C387.90 613.90 387.90 614.40 387.80 614.80C387.40 615.80 386.80 616.70 386.80 617.80M707 501.70C706.80 501.30 706.80 501 707.30 500.90M358.20 505.20L358.60 506.10M702.90 509.70C702.60 510.80 702 511.80 701.40 512.80C700.30 514.80 699.10 516.70 697.90 518.70C693.90 525.20 689.60 531.40 685.10 537.60C674.10 552.60 662.50 567.20 652.10 582.60C649.90 585.80 647.80 589.10 645.60 592.30C644.40 594 643.10 595.60 642.10 597.40M487 516.90C486.30 525.90 486.90 535 486.50 544.10C486.40 546.40 486.30 548.60 486.30 550.90C486.30 551.50 486 552.70 486.50 553.10C487.10 553.60 488 553.40 488.60 553.40C490.10 553.40 491.70 553.50 493.20 553.50C499.30 553.60 505.40 553.70 511.50 553.70L517.20 553.70C517.80 553.70 519 553.40 519 554.30C519.20 560 519 565.70 519 571.40C519 572.80 519.10 574.30 518.90 575.70C518.90 576.10 519.10 576.80 518.70 577.10C518.30 577.40 517 577.20 516.50 577.20C514.50 577.20 512.60 577.30 510.60 577.30C505.10 577.30 499.60 577.50 494.10 577.70C492.60 577.80 491.10 577.90 489.60 577.90C488.80 577.90 487.60 577.90 486.80 578.20C486 578.70 486.20 580.10 486.30 580.90C486.60 583.60 486.30 586.30 486.50 588.90C486.70 591.20 486.50 593.60 486.60 595.90C486.90 602.40 486.80 609 486.80 615.60C486.80 617.90 486.90 620.20 486.90 622.50C486.90 623.50 486.70 624.60 487.40 625.40C488.10 624.60 487.80 623.30 487.80 622.30L487.80 614.60L487.80 589L487.80 582.10C487.80 581.40 487.50 580 487.90 579.40C488.20 578.90 489.40 579.10 489.90 579.10L495.70 579.10L513.20 579.10L517.90 579.10C518.50 579.10 519.40 579.30 519.90 579C520.70 578.50 520.30 576 520.30 575.20C520.30 573.30 520.40 571.30 520.30 569.40C520.20 568.50 520 567.70 520 566.80C520 565.90 519.70 564.50 520.30 563.70C521 564.60 520.60 566.50 520.60 567.60C520.60 568.10 520.60 568.60 520.30 569M487.50 517.20L487.50 524.70C487.50 525.70 487.20 527 487.90 527.80M487.80 536.80C487.80 538.30 488.70 540.70 487.80 542C487.30 541.30 487.30 539.10 487.80 538.40M726.60 541.10C727.90 540.90 728.40 541.40 729.40 542C729.80 542.20 730.40 542.10 730.80 542.30C731.80 542.80 732.60 543.50 733.60 544.10C736.90 545.80 740.30 547.30 743.50 549.10C743.90 549.40 744 549.80 744.40 550C744.80 550.20 745.30 550.10 745.70 550.30C747 551.10 748.20 552.20 749.50 553C750.50 553.60 751.60 553.80 752.60 554.40C753.30 554.90 753.70 555.50 754.40 555.90C755.80 556.80 757.10 557.80 758.50 558.70C758.90 559 759.50 559.10 759.90 559.40C762.20 561 764.40 563.20 766.50 565.10C767.40 565.90 768.40 566.40 769.20 567.20C771.90 569.90 774.30 573.10 776.60 576.10C777.20 577 778.10 577.70 778.70 578.60C779.40 579.60 780.20 580.70 780.80 581.80C781 582.10 781 582.60 781.20 582.90C781.40 583.30 781.90 583.50 782.20 583.90C782.80 584.80 783.30 585.90 783.80 586.90C784.10 587.40 784.60 587.80 784.90 588.30C785.10 588.80 784.90 589.30 785.20 589.80C785.50 590.40 786.20 590.80 786.50 591.50C787.60 593.80 788.80 596.20 789.80 598.60C790 599.30 789.90 600.10 790.20 600.70C790.40 601.10 790.80 601.20 790.90 601.50C791.20 602 791.20 602.70 791.40 603.20C792.50 606.20 793.20 609.30 794.10 612.40C794.20 612.90 794.70 613.20 794.80 613.70C795.20 614.90 794.70 616.20 795.10 617.30C795.30 617.70 795.80 617.50 795.90 617.90C796.40 618.90 795.90 620.30 796.20 621.40C796.40 621.90 796.80 622.20 796.90 622.60C797.10 623.10 797 623.60 797.10 624.10C797.30 624.70 797.70 625.10 797.80 625.70C798.50 628 798.60 630.50 799 632.90C799.50 635.10 799.70 637.30 800 639.50C800.20 640.50 800.60 641.40 800.80 642.40C801 644.20 800.90 645.90 801.20 647.70C801.40 648.40 801.70 648.90 801.90 649.60C802.10 650.50 801.90 651.50 802.20 652.40C802.30 652.90 802.60 653.30 802.80 653.80C803 655 802.90 656.10 803 657.30C803.20 658.10 803.80 659 803.80 659.70C803.80 660.30 803.30 660.70 803.20 661.30C803.10 661.90 803.50 662.40 803.70 662.90C804 664 804 665.30 804 666.40C804 666.80 804 667.40 803.70 667.80C803.30 668.30 802.40 668 801.80 668.40C801.10 668.90 800.30 669.70 799.50 670C798.90 670.20 798.10 670 797.50 670.30C797.10 670.50 797 670.90 796.60 671C796.20 671.20 795.60 671.20 795.20 671.30C794.10 671.70 793 672.40 791.90 672.90C791.40 673 790.90 673 790.50 673.20C790 673.40 789.70 673.80 789.20 674.10C787.60 674.70 785.90 675.30 784.30 675.90C783.50 676.20 782.60 675.90 781.90 676.30C781.40 676.50 781 677 780.50 677.30C778.90 678 777.10 678.40 775.40 679C774.70 679.20 774.20 679.80 773.50 680C772.80 680.30 772 680.20 771.30 680.40C770.20 680.80 769.30 681.40 768.20 681.80C767.30 682.20 766.30 682.20 765.40 682.60C764.50 683 763.80 683.50 762.90 683.80C762.20 684.10 761.30 684 760.60 684.20C760.20 684.40 759.90 684.80 759.50 685C759 685.20 758.40 685.10 757.90 685.30C757.40 685.50 757 685.90 756.40 686C755.70 686.10 754.90 686 754.20 686.20C753.70 686.40 753.60 686.90 753.10 687.10C751.80 687.60 750.30 687.60 748.90 688C747.20 688.40 745.70 689.20 744.10 689.70C743 690 742 690 740.90 690.30C739.50 690.70 738.40 691.60 737 692C736.10 692.20 735.10 692.10 734.20 692.30C732.70 692.60 731.40 693.30 729.90 693.80C728.70 694.10 727.40 694 726.20 694.30C725.10 694.60 724 695.20 722.90 695.50C721.60 695.90 720.20 695.90 718.90 696.20C718.40 696.40 718 696.80 717.50 696.90C716.60 697.20 715.50 697 714.60 697.30C713.90 697.50 713.40 698 712.70 698.20C711 698.60 709.10 698.70 707.40 699.10C706.60 699.30 706 699.80 705.20 700C703.70 700.20 702.30 700 700.80 700.30C700.20 700.40 699.90 700.90 699.30 701C698.60 701.20 697.90 701.10 697.20 701.20C696.20 701.40 695.30 702 694.30 702.20C692 702.60 689.70 702.60 687.40 703.10C686.60 703.20 686 703.80 685.30 703.90C683.70 704.30 682.10 703.90 680.50 704.20C680 704.30 679.80 704.80 679.30 705C678.50 705.30 677.60 705 676.80 705.20C676.20 705.40 675.80 705.80 675.20 706C673 706.40 670.70 706.10 668.50 706.50C665.40 707.10 662.30 707.60 659.30 708.20C658.60 708.40 657.90 708.70 657.20 708.90C655.80 709.10 654.40 709.10 653 709.20C651.40 709.40 649.80 709.90 648.10 710.10C641.50 710.90 634.80 711.40 628.20 712C626.40 712.20 624.70 712.60 623 712.90C619.10 713.40 615.10 713.70 611.20 714C610.60 714 609.20 714.10 608.80 713.70C608.10 712.90 608.10 710.80 608.10 709.90C608 706.80 607.80 703.60 607.80 700.50C607.80 693.90 608.50 687.40 609.60 680.90C609.90 679.20 609.80 677.40 610.20 675.70C610.30 675.10 610.80 674.70 610.90 674.20C611.10 673.60 611.10 672.90 611.30 672.20C612 669.90 613 667.60 613.90 665.30C614.50 663.70 615.20 662 615.70 660.40C615.90 659.80 615.90 659.10 616.20 658.50C616.30 658.10 616.80 658.10 616.90 657.70C617.20 657.10 617.30 656.30 617.60 655.70C617.90 655 618.50 654.50 618.90 653.80C619.10 653.40 619 652.80 619.20 652.40C619.40 652.10 619.70 652 619.90 651.70C620.10 651.30 620 650.80 620.20 650.40C620.40 650 620.80 649.80 621.10 649.40C621.70 648.50 622 647.40 622.60 646.50C623.20 645.50 624 644.70 624.70 643.80C625 643.20 625.10 642.60 625.50 642C629 637.20 633 632.90 637.10 628.70C643.40 622.20 649.90 615.90 656.60 609.80C660.50 606.40 664.60 603.20 668.50 599.80C678.90 590.70 688.70 581 698.30 571.10C699.10 570.30 699.70 569.30 700.40 568.50C701.90 567 703.80 565.70 705.30 564.20C706.10 563.40 706.70 562.40 707.50 561.60C711 557.90 714.60 554.20 717.80 550.40C718.20 550 718.30 549.40 718.60 549C719.20 548.20 720 547.50 720.70 546.70C721.50 545.70 722.20 544.60 723.10 543.60C724.10 542.50 725.10 541.40 726.60 541.10M487.80 542C487.80 542.90 488.10 543.70 488.10 544.60C488.10 545 487.80 545.40 487.80 545.80C487.70 547 487.80 548.30 487.80 549.50C487.80 550.10 487.50 551.70 487.90 552.20C488.20 552.60 489 552.40 489.40 552.40L493.80 552.40L511.50 552.40L518.30 552.40C518.70 552.40 520.30 552.20 520.50 552.50C520.90 553 520.60 554.80 520.60 555.40C520.60 558.20 520.30 560.90 520.30 563.70M658.80 610.30C658.60 610 658.80 610.20 659 610.30C660.60 607.80 663.40 606 665.60 604.10C669.60 600.60 673.60 597.10 677.60 593.60C683.40 588.40 688.80 582.90 694.30 577.40C700 571.70 705.80 566 711.20 560C715 555.70 718.90 551.40 722.40 546.80C723.40 545.60 724.30 544.40 725.30 543.30C725.60 542.90 726 542.20 726.60 542.20C727.20 542.20 727.90 542.80 728.40 543.10C729.80 543.80 731.10 544.50 732.50 545.20C738 547.90 743.50 550.90 748.70 554.10C756.50 558.90 763.90 564.10 770.20 570.90C779.50 580.90 786.30 593 790.70 605.90C792.70 611.80 794.10 618 795.40 624.10C796.10 627.60 797 631 797.60 634.50C798.90 642.30 800.40 650.10 801.60 658C802 660 802.20 662 802.50 664C802.60 664.70 803 665.80 802.60 666.40C802.20 667.10 801.10 667.40 800.40 667.70C798.70 668.30 797 669 795.30 669.70C788.60 672.40 781.90 675 775.20 677.50C767.70 680.40 760 682.80 752.40 685.30C731.60 691.90 710.50 697.70 689 701.50C669.10 705.10 649.20 708.50 629.10 710.50C624.50 711 619.80 711.40 615.20 711.90C613.90 712.10 612.60 712.20 611.30 712.30C610.90 712.30 610.30 712.50 609.90 712.30C609.40 711.90 609.70 710.80 609.30 710.30C608.80 710.80 608.70 713 609.80 712.40M344.80 547.70L345.30 545.90C346.40 546.90 346.50 549.20 347 550.50C348.50 554.50 350 558.50 351.50 562.50C353 566.90 354.80 571.10 356.30 575.50C359.80 585.20 363.10 595 366.70 604.60C368.40 609.20 369.90 614 371.60 618.60C372 619.70 372.40 620.70 372.80 621.80C373 622.30 373.10 622.90 373.70 623C374.80 623.20 375.90 623.10 377 623.10L383.10 623.10C383.90 623.10 385.70 623.40 386.30 623C386.60 622.80 386.70 622.20 386.80 621.90C387.10 621 387.40 620 387.70 619.10C389 615.40 390.30 611.80 391.60 608.10C396.80 593.90 402.10 579.80 407.10 565.50C409.10 559.60 411.60 553.90 413.60 548C414 546.70 414.60 545.10 414.80 543.80C414.90 543.50 415.10 542.40 415.60 542.70C416.10 543 415.70 543.90 415.60 544.20C415.20 545.40 415.30 547.10 415.20 548.40C415 550.80 415.20 553.10 415 555.50C414.90 556.30 414.60 557 414.60 557.80C414.60 558.30 414.90 558.60 414.90 559.10C415 561 415 563.20 414.90 565.10C414.90 565.60 414.50 566 414.50 566.50C414.40 567.70 414.30 569.20 414.50 570.40C414.60 570.80 414.80 571.10 414.80 571.50C414.90 574.80 414.80 578.20 414.80 581.50L414.80 618.70C414.80 623.30 414.40 628.10 414.90 632.70C415 633.70 414.90 634.70 414.90 635.70C414.90 636 414.80 636.70 415 636.90C415.20 637.20 415.70 637.10 416 637.10C416.80 637.10 417.60 637 418.30 637.40C417.60 638 414.90 638.40 414.80 637.10M344.40 542.90L344.30 543.70M344.90 543.60L345.30 545.90M487.80 543.90C487.40 544.40 487.40 545 487.80 545.50M414.90 544L415.40 544M520 552.60L520 556.30C520 557 519.90 557.70 520.40 558.30M415 556C415.40 556.70 415.40 558 414.90 558.60M414.90 565.60C415.10 566 415.10 566.50 415.10 567C415.10 568.10 415.50 570 414.80 570.90M642.30 597.60L642.40 597.70M641.80 598.30L640.40 599.90M640.30 599.70L640.60 599.50M658.70 609.90L659.30 609.70M658.70 610L658.70 610.20M609.30 710.30C609.10 698.30 609.20 686.30 612.30 674.60C615.70 661.60 622 649.10 630.20 638.40C634.20 633.20 639 628.50 643.60 623.90C648.10 619.40 652.60 615.10 657.60 611.10C658 610.80 658.20 610.40 658.60 610.10M659 610.30C658.90 610.90 658.60 611 658.10 611M488.80 612.20L488.80 615M488.80 619.80L488.80 621.40M488.80 623.50L488.80 625.40M487.30 636.70C486.90 635.70 487.10 634.80 487.10 633.70C487.10 631.80 487.10 630 487.10 628.10C487.10 627.40 486.80 625.80 487.50 625.40M487.50 625.40C488.20 626.20 488 627.20 488 628.20L488 634.70C488 635.30 488.30 637.10 487.80 637.50C487.50 637.70 486.90 637.60 486.50 637.60C485.40 637.60 483.60 637.30 482.70 637.90M488.80 628.50L488.80 634.40M487 636.20L486.50 637.20C485.40 636.70 483.90 636.90 482.70 636.90C482.20 636.90 481.60 636.80 481.20 636.90C480.90 637 480.70 637.20 480.50 637.40M486.50 637.20L486.50 637.50M418.30 637.40L421.80 637.40M480.10 637.40L478.40 637.60M425.10 639.30L437.70 639.40"/>
</g>
</svg>